<svg xmlns="http://www.w3.org/2000/svg" width="20" height="20" viewBox="0 0 20 20"><path fill="none" d="M0 0h20v20H0z"/><path d="M13.729 6.5a.286.286 0 01.061.364l-4.554 9.715a.367.367 0 01-.364.182h-.121c-.121 0-.182-.061-.243-.182a.365.365 0 01-.061-.243l1.639-6.8-3.4.85h-.121a.316.316 0 01-.243-.121c-.121-.061-.121-.182-.121-.3l1.7-6.922c0-.061.061-.121.121-.182s.121-.061.243-.061H11a.316.316 0 01.243.121.461.461 0 01.121.243c0 .061 0 .121-.061.121L9.846 7.171l3.34-.85h.121a.939.939 0 01.422.179z" fill="#d10b0b"/></svg>