<svg xmlns="http://www.w3.org/2000/svg" width="20" height="20" viewBox="0 0 20 20"><path fill="none" d="M0 0h20v20H0z"/><path d="M5.708 16.589l.971-.971-2.464-2.464-.971.971v1.12h1.344v1.344zm5.377-9.634a.2.2 0 00-.224-.224c-.075 0-.149 0-.149.075l-5.6 5.6c-.075.075-.075.075-.075.149a.2.2 0 00.224.224c.075 0 .149 0 .149-.075l5.6-5.6c.075.001.075-.074.075-.149zm-.523-1.942l4.331 4.331-8.588 8.588H1.974v-4.331zm7.02.971a1.237 1.237 0 01-.373.9l-1.718 1.718-4.331-4.331 1.718-1.718a1 1 0 01.9-.373 1.572 1.572 0 01.971.373l2.464 2.39a1.982 1.982 0 01.369 1.042z" fill="#707070"/></svg>