<svg xmlns="http://www.w3.org/2000/svg" width="20" height="20" viewBox="0 0 20 20"><path fill="none" d="M0 0h20v20H0z"/><path d="M7.843 15.594V7.747a.286.286 0 00-.324-.324h-.728a.286.286 0 00-.324.324v7.847a.286.286 0 00.324.324h.728a.3.3 0 00.243-.081c.081 0 .081-.081.081-.243zm2.831 0V7.747a.286.286 0 00-.324-.324h-.728a.286.286 0 00-.324.324v7.847a.286.286 0 00.324.324h.728a.3.3 0 00.243-.081c.082 0 .082-.081.082-.243zm2.912 0V7.747a.286.286 0 00-.324-.324h-.728a.286.286 0 00-.324.324v7.847a.286.286 0 00.324.324h.728a.3.3 0 00.243-.081.355.355 0 00.082-.243zM7.519 4.512h5.015l-.566-1.294-.162-.162H8.247a.174.174 0 00-.162.162zm10.354.4v.728a.286.286 0 01-.323.323H16.5v10.6a2.332 2.332 0 01-.566 1.618 1.472 1.472 0 01-1.294.647h-9.3a1.823 1.823 0 01-1.294-.647 2.605 2.605 0 01-.566-1.618V5.885H2.428a.286.286 0 01-.324-.324v-.728a.286.286 0 01.324-.324H5.9l.809-1.861a2.23 2.23 0 01.566-.728 1.991 1.991 0 01.89-.324h3.559a1.347 1.347 0 01.89.324 1.029 1.029 0 01.566.728l.809 1.861h3.478a.3.3 0 01.243.081c.164.084.164.165.164.327z" fill="#707070"/></svg>