<svg xmlns="http://www.w3.org/2000/svg" width="20" height="20" viewBox="0 0 20 20"><defs><style>.a{fill:none;}.b{fill:#d10b0b;}</style></defs><g transform="translate(-265 -1103.2)"><rect class="a" width="20" height="20" transform="translate(265 1103.2)"/><path class="b" d="M267.729,1108.7a.286.286,0,0,1,.061.364l-4.554,9.715a.367.367,0,0,1-.364.182h-.121c-.121,0-.182-.061-.243-.182a.365.365,0,0,1-.061-.243l1.639-6.8-3.4.85h-.121a.316.316,0,0,1-.243-.121c-.121-.061-.121-.182-.121-.3l1.7-6.922c0-.061.061-.121.121-.182s.121-.061.243-.061H265a.316.316,0,0,1,.243.121.461.461,0,0,1,.121.243c0,.061,0,.121-.061.121l-1.457,3.886,3.34-.85h.121A.939.939,0,0,1,267.729,1108.7Z" transform="translate(11 1)"/></g></svg>