<svg xmlns="http://www.w3.org/2000/svg" width="20" height="20" viewBox="0 0 20 20"><defs><style>.a{fill:none;}.b{fill:#707070;}</style></defs><g transform="translate(-462 -157)"><rect class="a" width="20" height="20" transform="translate(462 157)"/><g transform="translate(-363 -1491.2)"><path class="b" d="M832.843,1663.794v-7.847a.286.286,0,0,0-.324-.324h-.728a.286.286,0,0,0-.324.324v7.847a.286.286,0,0,0,.324.324h.728a.3.3,0,0,0,.243-.081C832.843,1664.037,832.843,1663.956,832.843,1663.794Zm2.831,0v-7.847a.286.286,0,0,0-.324-.324h-.728a.286.286,0,0,0-.324.324v7.847a.286.286,0,0,0,.324.324h.728a.3.3,0,0,0,.243-.081C835.675,1664.037,835.675,1663.956,835.675,1663.794Zm2.912,0v-7.847a.286.286,0,0,0-.324-.324h-.728a.286.286,0,0,0-.324.324v7.847a.286.286,0,0,0,.324.324h.728a.3.3,0,0,0,.243-.081A.355.355,0,0,0,838.587,1663.794Zm-6.067-11.082h5.015l-.566-1.294-.162-.162h-3.559a.174.174,0,0,0-.162.162Zm10.354.4v.728a.286.286,0,0,1-.323.323H841.5v10.6a2.332,2.332,0,0,1-.566,1.618,1.472,1.472,0,0,1-1.294.647h-9.3a1.823,1.823,0,0,1-1.294-.647,2.605,2.605,0,0,1-.566-1.618v-10.678h-1.052a.286.286,0,0,1-.324-.324v-.728a.286.286,0,0,1,.324-.324H830.9l.809-1.861a2.23,2.23,0,0,1,.566-.728,1.991,1.991,0,0,1,.89-.324h3.559a1.347,1.347,0,0,1,.89.324,1.029,1.029,0,0,1,.566.728l.809,1.861h3.478a.3.3,0,0,1,.243.081C842.874,1652.874,842.874,1652.955,842.874,1653.117Z" transform="translate(0)"/></g></g></svg>